# xmcd
# 
# Track frame offsets:
#     150
#     11067
#     41817
#     64977
#     102960
#     155535
#     189967
#     207082
#     231597
#     254887
#     288125
#     310562
#     353247
# 
# Disc length: 4730
# 
# Revision: 8
# Processed by: cddbd v1.5.2PL0 Copyright (c) Steve Scherf et al.
# Submitted via: fre:ac v1.0.17
# 
DISCID=be12780d
DTITLE=Luther Allison - Where Have You Been ?  Live In Montreux 1976-1994
DYEAR=1996
DGENRE=Blues
TTITLE0=Introduction (1976)
TTITLE1=Gamblers Blues (1976)
TTITLE2=Sweet Home Chicago (1976)
TTITLE3=Same Thing (1976)
TTITLE4=Little Red Rooster (1976)
TTITLE5=Sky Is Crying (1983)
TTITLE6=Back Down South (1984)
TTITLE7=Memories (1984)
TTITLE8=Spontaneous Improvisation (1984)
TTITLE9=Bad News Is Coming (1984)
TTITLE10=Put Your Money Where Your Mouth Is (1994)
TTITLE11=Bad Love (1994)
TTITLE12=Audience (1976)
EXTD=Live in Montreux 1976-1994 YEAR: 1996
EXTT0=
EXTT1=
EXTT2=
EXTT3=
EXTT4=
EXTT5=
EXTT6=
EXTT7=
EXTT8=
EXTT9=
EXTT10=
EXTT11=
EXTT12=
PLAYORDER=
